# xmcd CD database file
#
# Track frame offsets:
#	150
#	20080
#	35855
#	53873
#	74658
#	96058
#	117933
#	138053
#	158888
#	179690
#
# Disc length: 2711 seconds
#
# Revision: 0
# Processed by: cddbd v1.5.1PL2 Copyright (c) Steve Scherf et al.
# Submitted via: CDex 1.51
#
DISCID=910a950a
DTITLE=小林幸子 - 小林幸子 全曲集 春蝉 Disc.2
DYEAR=1900
DGENRE=Vocal
TTITLE0=Ribbon
TTITLE1=とまり木
TTITLE2=約束
TTITLE3=誰かがそばにいる 〜「ほんまもん」より〜
TTITLE4=越後情話
TTITLE5=やんちゃ酒(セリフ入り)
TTITLE6=泣かせ雨
TTITLE7=雪泣夜(SEセリフ入り)
TTITLE8=夢の涯て 〜子牛線の夢〜
TTITLE9=孔雀(アルバム・ヴァージョン)
EXTD=
EXTT0=
EXTT1=
EXTT2=
EXTT3=
EXTT4=
EXTT5=
EXTT6=
EXTT7=
EXTT8=
EXTT9=
PLAYORDER=
